<?xml version="1.0" encoding="UTF-8" standalone="no"?>
<!-- Created with Inkscape (http://www.inkscape.org/) -->

<svg
   xmlns:dc="http://purl.org/dc/elements/1.1/"
   xmlns:cc="http://creativecommons.org/ns#"
   xmlns:rdf="http://www.w3.org/1999/02/22-rdf-syntax-ns#"
   xmlns:svg="http://www.w3.org/2000/svg"
   xmlns="http://www.w3.org/2000/svg"
   xmlns:sodipodi="http://sodipodi.sourceforge.net/DTD/sodipodi-0.dtd"
   xmlns:inkscape="http://www.inkscape.org/namespaces/inkscape"
   width="744.09448819"
   height="1052.3622047"
   id="svg2"
   version="1.1"
   inkscape:version="0.48.4 r9939"
   sodipodi:docname="map.svg"
   inkscape:export-filename="C:\Users\imaduddinalfikri\SkyDrive\Documents\Pengembangan Game\TPGSukses\TVRunner\TVRunner\Assets\TVRunner\World Map\map.png"
   inkscape:export-xdpi="90"
   inkscape:export-ydpi="90">
  <defs
     id="defs4" />
  <sodipodi:namedview
     id="base"
     pagecolor="#ffffff"
     bordercolor="#666666"
     borderopacity="1.0"
     inkscape:pageopacity="0.0"
     inkscape:pageshadow="2"
     inkscape:zoom="1.4"
     inkscape:cx="314.44783"
     inkscape:cy="861.13616"
     inkscape:document-units="px"
     inkscape:current-layer="layer1"
     showgrid="false"
     inkscape:window-width="1366"
     inkscape:window-height="705"
     inkscape:window-x="-8"
     inkscape:window-y="-8"
     inkscape:window-maximized="1" />
  <metadata
     id="metadata7">
    <rdf:RDF>
      <cc:Work
         rdf:about="">
        <dc:format>image/svg+xml</dc:format>
        <dc:type
           rdf:resource="http://purl.org/dc/dcmitype/StillImage" />
        <dc:title></dc:title>
      </cc:Work>
    </rdf:RDF>
  </metadata>
  <g
     inkscape:label="Layer 1"
     inkscape:groupmode="layer"
     id="layer1">
    <path
       sodipodi:type="arc"
       style="fill:#ffffff;stroke:#000000;stroke-opacity:1"
       id="path2999"
       sodipodi:cx="56.42857"
       sodipodi:cy="62.362183"
       sodipodi:rx="23.571428"
       sodipodi:ry="22.857143"
       d="m 79.999998,62.362183 a 23.571428,22.857143 0 1 1 -47.142857,0 23.571428,22.857143 0 1 1 47.142857,0 z"
       transform="translate(15,3.5714286)" />
    <path
       sodipodi:type="arc"
       style="fill:#ffffff;stroke:#000000;stroke-opacity:1"
       id="path3001"
       sodipodi:cx="148.92857"
       sodipodi:cy="133.79076"
       sodipodi:rx="48.92857"
       sodipodi:ry="50.714287"
       d="m 197.85714,133.79076 a 48.92857,50.714287 0 1 1 -97.85714,0 48.92857,50.714287 0 1 1 97.85714,0 z" />
    <path
       transform="translate(43.57143,162.14286)"
       sodipodi:type="arc"
       style="fill:#ffffff;stroke:#000000;stroke-opacity:1"
       id="path2999-1"
       sodipodi:cx="56.42857"
       sodipodi:cy="62.362183"
       sodipodi:rx="23.571428"
       sodipodi:ry="22.857143"
       d="m 79.999998,62.362183 a 23.571428,22.857143 0 1 1 -47.142857,0 23.571428,22.857143 0 1 1 47.142857,0 z" />
    <path
       transform="translate(42.142859,228.57142)"
       sodipodi:type="arc"
       style="fill:#ffffff;stroke:#000000;stroke-opacity:1"
       id="path2999-7"
       sodipodi:cx="56.42857"
       sodipodi:cy="62.362183"
       sodipodi:rx="23.571428"
       sodipodi:ry="22.857143"
       d="m 79.999998,62.362183 a 23.571428,22.857143 0 1 1 -47.142857,0 23.571428,22.857143 0 1 1 47.142857,0 z" />
    <path
       transform="translate(106.42857,266.42857)"
       sodipodi:type="arc"
       style="fill:#ffffff;stroke:#000000;stroke-opacity:1"
       id="path2999-4"
       sodipodi:cx="56.42857"
       sodipodi:cy="62.362183"
       sodipodi:rx="23.571428"
       sodipodi:ry="22.857143"
       d="m 79.999998,62.362183 a 23.571428,22.857143 0 1 1 -47.142857,0 23.571428,22.857143 0 1 1 47.142857,0 z" />
    <path
       transform="translate(289.28571,124.28572)"
       sodipodi:type="arc"
       style="fill:#ffffff;stroke:#000000;stroke-opacity:1"
       id="path2999-0"
       sodipodi:cx="56.42857"
       sodipodi:cy="62.362183"
       sodipodi:rx="23.571428"
       sodipodi:ry="22.857143"
       d="m 79.999998,62.362183 a 23.571428,22.857143 0 1 1 -47.142857,0 23.571428,22.857143 0 1 1 47.142857,0 z" />
    <path
       transform="translate(274.28572,190.00001)"
       sodipodi:type="arc"
       style="fill:#ffffff;stroke:#000000;stroke-opacity:1"
       id="path2999-9"
       sodipodi:cx="56.42857"
       sodipodi:cy="62.362183"
       sodipodi:rx="23.571428"
       sodipodi:ry="22.857143"
       d="m 79.999998,62.362183 a 23.571428,22.857143 0 1 1 -47.142857,0 23.571428,22.857143 0 1 1 47.142857,0 z" />
    <path
       transform="translate(107.5,173.57142)"
       sodipodi:type="arc"
       style="fill:#ffffff;stroke:#000000;stroke-opacity:1"
       id="path3001-4"
       sodipodi:cx="148.92857"
       sodipodi:cy="133.79076"
       sodipodi:rx="48.92857"
       sodipodi:ry="50.714287"
       d="m 197.85714,133.79076 a 48.92857,50.714287 0 1 1 -97.85714,0 48.92857,50.714287 0 1 1 97.85714,0 z" />
    <path
       transform="translate(178.21429,-42.857146)"
       sodipodi:type="arc"
       style="fill:#ffffff;stroke:#000000;stroke-opacity:1"
       id="path3001-8"
       sodipodi:cx="148.92857"
       sodipodi:cy="133.79076"
       sodipodi:rx="48.92857"
       sodipodi:ry="50.714287"
       d="m 197.85714,133.79076 a 48.92857,50.714287 0 1 1 -97.85714,0 48.92857,50.714287 0 1 1 97.85714,0 z" />
    <path
       transform="translate(381.07143,149.28571)"
       sodipodi:type="arc"
       style="fill:#ffffff;stroke:#000000;stroke-opacity:1"
       id="path3001-8-8"
       sodipodi:cx="148.92857"
       sodipodi:cy="133.79076"
       sodipodi:rx="48.92857"
       sodipodi:ry="50.714287"
       d="m 197.85714,133.79076 a 48.92857,50.714287 0 1 1 -97.85714,0 48.92857,50.714287 0 1 1 97.85714,0 z" />
    <path
       transform="translate(366.42857,-0.71428728)"
       sodipodi:type="arc"
       style="fill:#ffffff;stroke:#000000;stroke-opacity:1"
       id="path2999-0-2"
       sodipodi:cx="56.42857"
       sodipodi:cy="62.362183"
       sodipodi:rx="23.571428"
       sodipodi:ry="22.857143"
       d="m 79.999998,62.362183 a 23.571428,22.857143 0 1 1 -47.142857,0 23.571428,22.857143 0 1 1 47.142857,0 z" />
    <path
       transform="translate(432.14285,24.285713)"
       sodipodi:type="arc"
       style="fill:#ffffff;stroke:#000000;stroke-opacity:1"
       id="path2999-0-4"
       sodipodi:cx="56.42857"
       sodipodi:cy="62.362183"
       sodipodi:rx="23.571428"
       sodipodi:ry="22.857143"
       d="m 79.999998,62.362183 a 23.571428,22.857143 0 1 1 -47.142857,0 23.571428,22.857143 0 1 1 47.142857,0 z" />
    <path
       transform="translate(385.00001,86.42857)"
       sodipodi:type="arc"
       style="fill:#ffffff;stroke:#000000;stroke-opacity:1"
       id="path2999-0-5"
       sodipodi:cx="56.42857"
       sodipodi:cy="62.362183"
       sodipodi:rx="23.571428"
       sodipodi:ry="22.857143"
       d="m 79.999998,62.362183 a 23.571428,22.857143 0 1 1 -47.142857,0 23.571428,22.857143 0 1 1 47.142857,0 z" />
    <path
       transform="translate(409.28572,152.85714)"
       sodipodi:type="arc"
       style="fill:#ffffff;stroke:#000000;stroke-opacity:1"
       id="path2999-0-51"
       sodipodi:cx="56.42857"
       sodipodi:cy="62.362183"
       sodipodi:rx="23.571428"
       sodipodi:ry="22.857143"
       d="m 79.999998,62.362183 a 23.571428,22.857143 0 1 1 -47.142857,0 23.571428,22.857143 0 1 1 47.142857,0 z" />
    <path
       sodipodi:type="arc"
       style="fill:#0000ff;stroke:#000000;stroke-opacity:1"
       id="path3135"
       sodipodi:cx="580.35712"
       sodipodi:cy="280.57648"
       sodipodi:rx="13.928572"
       sodipodi:ry="68.214287"
       d="m 594.28569,280.57648 a 13.928572,68.214287 0 1 1 -27.85715,0 13.928572,68.214287 0 1 1 27.85715,0 z"
       transform="translate(45.714286,2.8571429)" />
    <path
       sodipodi:type="arc"
       style="fill:#000080;stroke:#000000;stroke-opacity:1"
       id="path3139"
       sodipodi:cx="604.28571"
       sodipodi:cy="285.57648"
       sodipodi:rx="14.285714"
       sodipodi:ry="48.92857"
       d="m 618.57142,285.57648 a 14.285714,48.92857 0 1 1 -28.57143,0 14.285714,48.92857 0 1 1 28.57143,0 z"
       transform="matrix(0.5588028,0,0,1.0025702,284.4663,-1.4482639)" />
  </g>
</svg>
